<?xml version="1.0" encoding="UTF-8" standalone="no"?>
<svg
   width="170"
   height="30"
   viewBox="0 0 44.979167 7.9374999"
   version="1.1"
   id="svg8"
   inkscape:version="1.1.2 (b8e25be833, 2022-02-05)"
   sodipodi:docname="logo.svg"
   xmlns:inkscape="http://www.inkscape.org/namespaces/inkscape"
   xmlns:sodipodi="http://sodipodi.sourceforge.net/DTD/sodipodi-0.dtd"
   xmlns="http://www.w3.org/2000/svg"
   xmlns:svg="http://www.w3.org/2000/svg"
   xmlns:rdf="http://www.w3.org/1999/02/22-rdf-syntax-ns#"
   xmlns:cc="http://creativecommons.org/ns#"
   xmlns:dc="http://purl.org/dc/elements/1.1/">
  <defs
     id="defs2">
    <clipPath
       id="clip0_55_1110">
      <rect
         width="49.9972"
         height="50"
         fill="#ffffff"
         transform="translate(0,0.5)"
         id="rect24"
         x="0"
         y="0" />
    </clipPath>
  </defs>
  <sodipodi:namedview
     id="base"
     pagecolor="#ffffff"
     bordercolor="#666666"
     borderopacity="1.0"
     inkscape:pageopacity="0.0"
     inkscape:pageshadow="2"
     inkscape:zoom="7.9195959"
     inkscape:cx="84.600276"
     inkscape:cy="37.817586"
     inkscape:document-units="cm"
     inkscape:current-layer="layer1"
     inkscape:document-rotation="0"
     showgrid="false"
     units="px"
     inkscape:pagecheckerboard="true"
     inkscape:showpageshadow="false"
     inkscape:window-width="1920"
     inkscape:window-height="1017"
     inkscape:window-x="-8"
     inkscape:window-y="-8"
     inkscape:window-maximized="1" />
  <metadata
     id="metadata5">
    <rdf:RDF>
      <cc:Work
         rdf:about="">
        <dc:format>image/svg+xml</dc:format>
        <dc:type
           rdf:resource="http://purl.org/dc/dcmitype/StillImage" />
      </cc:Work>
    </rdf:RDF>
  </metadata>
  <g
     inkscape:label="Layer 1"
     inkscape:groupmode="layer"
     id="layer1">
    <g
       id="g1182"
       transform="matrix(0.99239577,0,0,1,6.2664232,1.5119047)"
       style="stroke-width:1.0038">
      <g
         clip-path="url(#clip0_55_1110)"
         id="g4"
         transform="matrix(0.26458333,0,0,0.26458333,-7.5955446,-4.2900429)"
         style="stroke-width:1.0038">
        <path
           d="M 44.9557,34.0209 42.685,18.0625 c -0.5833,-4.1041 -4.1039,-7.1458 -8.2495,-7.1458 h -18.874 c -4.1456,0 -7.6662,3.0417 -8.2495,7.1458 L 5.04129,34.0209 c -0.45831,3.2083 2.02072,6.0625 5.24971,6.0625 1.4166,0 2.7498,-0.5625 3.7498,-1.5625 l 4.708,-4.6875 h 12.4993 l 4.6873,4.6875 c 0.9999,1 2.354,1.5625 3.7498,1.5625 3.2498,0 5.7288,-2.8542 5.2705,-6.0625 z M 22.9153,23.4167 h -4.1665 v 4.1667 h -2.0832 v -4.1667 h -4.1664 v -2.0833 h 4.1664 v -4.1667 h 2.0832 v 4.1667 h 4.1665 z m 8.3328,-2.0833 c -1.1457,0 -2.0832,-0.9375 -2.0832,-2.0834 0,-1.1458 0.9375,-2.0833 2.0832,-2.0833 1.1458,0 2.0833,0.9375 2.0833,2.0833 0,1.1459 -0.9375,2.0834 -2.0833,2.0834 z m 4.1665,6.25 c -1.1458,0 -2.0832,-0.9375 -2.0832,-2.0834 0,-1.1458 0.9374,-2.0833 2.0832,-2.0833 1.1457,0 2.0832,0.9375 2.0832,2.0833 0,1.1459 -0.9375,2.0834 -2.0832,2.0834 z"
           fill="#2a7ae4"
           id="path2"
           style="stroke-width:1.0041" />
      </g>
      <path
         d="m 26.292553,4.3089153 c -0.374915,0.3748352 -0.811477,0.5622396 -1.309688,0.5622396 -0.308768,0 -0.59981,-0.061727 -0.873125,-0.1852083 C 23.840659,4.562492 23.604915,4.3927089 23.40198,4.1766237 23.203543,3.9605649 23.044793,3.7069882 22.92573,3.4159466 c -0.114565,-0.2954338 -0.171979,-0.6129338 -0.171979,-0.9525 0,-0.3218921 0.05741,-0.6239669 0.171979,-0.9061979 0.119063,-0.2866231 0.280194,-0.5357813 0.482865,-0.74744791 0.207168,-0.21605875 0.449791,-0.38584187 0.727604,-0.50932291 0.277812,-0.12787313 0.579966,-0.19182292 0.906198,-0.19182292 0.440795,0 0.817827,0.0926042 1.131093,0.2778125 0.3175,0.18520833 0.555361,0.43436645 0.714111,0.74744794 L 26.206563,1.6366237 C 26.087501,1.4029172 25.919755,1.2243235 25.703855,1.1008424 25.492188,0.97738787 25.260678,0.91563412 25.009324,0.91563412 c -0.198438,0 -0.381529,0.04191 -0.549011,0.12567708 -0.163248,0.083794 -0.304271,0.1984375 -0.423333,0.3439583 -0.114565,0.1455209 -0.205052,0.3131079 -0.271198,0.5027084 -0.06165,0.1896268 -0.0926,0.3902604 -0.0926,0.601927 0,0.2205038 0.03519,0.4277519 0.105833,0.6217709 0.07064,0.1896268 0.167482,0.3549914 0.291042,0.4960937 0.12356,0.1411287 0.269081,0.2535767 0.436562,0.3373437 0.17198,0.079375 0.357188,0.1190625 0.555625,0.1190625 0.454025,0 0.86413,-0.2138627 1.230313,-0.6416145 V 3.091832 h -0.94589 V 2.4237591 h 1.699684 V 4.838082 h -0.753798 z"
         fill="#464646"
         id="path6"
         style="stroke-width:0.265596" />
      <path
         d="m 29.34558,4.9042278 c -0.277813,0 -0.529167,-0.046302 -0.754063,-0.1389062 C 28.366622,4.6683253 28.174799,4.5382297 28.016049,4.3750612 27.857299,4.2119191 27.734003,4.0222922 27.645632,3.806207 27.562024,3.5901483 27.52022,3.3630299 27.52022,3.1249049 c 0,-0.2469356 0.0418,-0.478446 0.125412,-0.6945312 0.08387,-0.2204773 0.205052,-0.4123002 0.363802,-0.5754688 0.15875,-0.1675606 0.350573,-0.2998522 0.575469,-0.396875 0.229394,-0.096996 0.485246,-0.1455208 0.767292,-0.1455208 0.28231,0 0.533664,0.048525 0.754062,0.1455208 0.224896,0.097023 0.414602,0.2271184 0.568854,0.3902605 0.15875,0.1631685 0.277813,0.3527954 0.357188,0.5688541 0.08361,0.2160852 0.125677,0.4409811 0.125677,0.6746875 0,0.057335 -0.0024,0.1124479 -0.0066,0.1653646 0,0.052917 -0.0045,0.097023 -0.01323,0.1322917 H 28.45924 c 0.01323,0.1367102 0.0463,0.2579687 0.09922,0.363802 0.05292,0.1058334 0.121443,0.1962415 0.205052,0.2711979 0.08387,0.074983 0.178593,0.1322917 0.284427,0.1719792 0.105833,0.039687 0.216164,0.059531 0.330729,0.059531 0.176477,0 0.341842,-0.041884 0.496094,-0.1256771 0.15875,-0.088186 0.2667,-0.2028296 0.324114,-0.3439584 l 0.760677,0.2116667 C 30.83148,4.2626132 30.626692,4.4808945 30.344382,4.6528737 30.06657,4.8204607 29.733724,4.9042278 29.34558,4.9042278 Z m 0.899583,-2.0902083 c -0.02196,-0.2601648 -0.119062,-0.4674129 -0.291041,-0.6217708 -0.167482,-0.15875 -0.372534,-0.238125 -0.615157,-0.238125 -0.119062,0 -0.23151,0.022066 -0.337343,0.066146 -0.101336,0.039687 -0.191823,0.097023 -0.271198,0.1719792 -0.07937,0.074983 -0.145521,0.1653646 -0.198438,0.2711979 -0.04842,0.1058333 -0.07699,0.2226998 -0.08599,0.3505729 z"
         fill="#464646"
         id="path8"
         style="stroke-width:0.265596" />
      <path
         d="m 33.305069,4.9042278 c -0.277812,0 -0.529166,-0.046302 -0.754062,-0.1389062 C 32.326111,4.6683253 32.134288,4.5382297 31.975538,4.3750612 31.816788,4.2119191 31.693492,4.0222922 31.605122,3.806207 31.521513,3.5901483 31.479709,3.3630299 31.479709,3.1249049 c 0,-0.2469356 0.0418,-0.478446 0.125413,-0.6945312 0.08387,-0.2204773 0.205052,-0.4123002 0.363802,-0.5754688 0.15875,-0.1675606 0.350573,-0.2998522 0.575468,-0.396875 0.229394,-0.096996 0.484982,-0.1455208 0.767292,-0.1455208 0.28231,0 0.533665,0.048525 0.754063,0.1455208 0.224895,0.097023 0.414602,0.2271184 0.568854,0.3902605 0.15875,0.1631685 0.277812,0.3527954 0.357187,0.5688541 0.08361,0.2160852 0.125677,0.4409811 0.125677,0.6746875 0,0.057335 -0.0024,0.1124479 -0.0066,0.1653646 0,0.052917 -0.0045,0.097023 -0.01323,0.1322917 h -2.678907 c 0.01323,0.1367102 0.0463,0.2579687 0.09922,0.363802 0.05292,0.1058334 0.121444,0.1962415 0.205052,0.2711979 0.08387,0.074983 0.178594,0.1322917 0.284427,0.1719792 0.105834,0.039687 0.216165,0.059531 0.330729,0.059531 0.176477,0 0.341842,-0.041884 0.496094,-0.1256771 0.15875,-0.088186 0.2667,-0.2028296 0.324115,-0.3439584 l 0.760677,0.2116667 c -0.128059,0.2645833 -0.332846,0.4828646 -0.615156,0.6548438 -0.277813,0.167587 -0.610659,0.2513541 -0.998803,0.2513541 z M 34.204653,2.8140195 C 34.182692,2.5538547 34.08559,2.3466066 33.913611,2.1922487 c -0.167481,-0.15875 -0.372533,-0.238125 -0.615156,-0.238125 -0.119063,0 -0.231511,0.022066 -0.337344,0.066146 -0.101335,0.039687 -0.191823,0.097023 -0.271198,0.1719792 -0.07937,0.074983 -0.145521,0.1653646 -0.198437,0.2711979 -0.04842,0.1058333 -0.07699,0.2226998 -0.08599,0.3505729 z"
         fill="#464646"
         id="path10"
         style="stroke-width:0.265596" />
      <path
         d="M 38.025236,4.838082 37.019819,3.3365716 36.543569,3.806207 V 4.838082 H 35.657215 V 0.00943621 h 0.886354 V 2.9396966 l 1.389063,-1.5610417 h 0.945885 l -1.289843,1.4684375 1.382447,1.9909896 z"
         fill="#464646"
         id="path12"
         style="stroke-width:0.265596" />
      <path
         d="M 7.4253008,0.14172788 H 8.2322271 L 10.018059,4.838082 H 9.0788408 L 8.6423048,3.6673007 H 7.001994 L 6.5720725,4.838082 H 5.6328546 Z M 8.4769667,3.0256862 7.828764,1.1802174 7.1541029,3.0256862 Z"
         fill="#2a7ae4"
         id="path14"
         style="stroke-width:0.265596" />
      <path
         d="m 10.440545,0.00943621 h 0.886302 V 3.726832 c 0,0.1278996 0.03088,0.2271183 0.0926,0.2976562 0.06173,0.070564 0.149913,0.1058334 0.264583,0.1058334 0.05289,0 0.110226,-0.00881 0.171953,-0.026458 0.06615,-0.017621 0.127873,-0.039688 0.185208,-0.066146 l 0.119063,0.6746875 c -0.119063,0.057335 -0.257969,0.1014413 -0.416719,0.1322917 -0.158724,0.030877 -0.302048,0.046302 -0.429922,0.046302 -0.277786,0 -0.493844,-0.072761 -0.648176,-0.2182813 -0.149939,-0.1499129 -0.224896,-0.3615796 -0.224896,-0.635 z"
         fill="#2a7ae4"
         id="path16"
         style="stroke-width:0.265596" />
      <path
         d="m 13.604671,4.9042278 c -0.357161,0 -0.628359,-0.1146439 -0.813541,-0.3439583 C 12.605922,4.3309816 12.513318,3.9914153 12.513318,3.5416237 V 1.3720404 h 0.886327 v 1.9777604 c 0,0.5335852 0.191797,0.8003645 0.575416,0.8003645 0.171979,0 0.337344,-0.050694 0.496067,-0.1521354 0.163169,-0.1058333 0.295434,-0.2645833 0.396849,-0.47625 V 1.3720404 h 0.886328 v 2.4473958 c 0,0.092604 0.01542,0.15875 0.04627,0.1984375 0.0353,0.039688 0.09041,0.061754 0.165365,0.066146 V 4.838082 c -0.08819,0.017648 -0.163142,0.028681 -0.224869,0.033073 -0.05734,0.00442 -0.110252,0.00661 -0.15875,0.00661 -0.15875,0 -0.28882,-0.035269 -0.390234,-0.1058333 -0.09702,-0.074956 -0.154332,-0.1763713 -0.17198,-0.3042709 l -0.01984,-0.2778125 c -0.154332,0.238125 -0.352743,0.4167188 -0.595286,0.5357813 -0.242517,0.1190625 -0.50927,0.1785937 -0.800312,0.1785937 z"
         fill="#2a7ae4"
         id="path18"
         style="stroke-width:0.265596" />
      <path
         d="m 18.698694,2.139332 c -0.268976,0.00442 -0.509297,0.057335 -0.720937,0.15875 -0.211667,0.097023 -0.363775,0.2447396 -0.45638,0.4431771 V 4.838082 H 16.635076 V 1.3720404 h 0.813541 v 0.7408333 c 0.06173,-0.1190625 0.134488,-0.2248958 0.218255,-0.3175 0.08379,-0.096996 0.174175,-0.1807898 0.271198,-0.2513542 0.097,-0.070538 0.194019,-0.1234546 0.291015,-0.15875 0.101415,-0.039687 0.198437,-0.059531 0.291042,-0.059531 0.0485,0 0.08377,0 0.105806,0 0.02646,0 0.05072,0.00222 0.07276,0.00661 z"
         fill="#2a7ae4"
         id="path20"
         style="stroke-width:0.265596" />
      <path
         d="m 20.09363,4.9042278 c -0.167746,0 -0.324115,-0.026458 -0.469635,-0.079375 C 19.478474,4.7675441 19.352797,4.6903651 19.246963,4.5933424 19.14113,4.4919276 19.057257,4.3750612 18.995609,4.2427695 18.938195,4.1104778 18.90962,3.964957 18.90962,3.806207 c 0,-0.1631421 0.03519,-0.3130815 0.105833,-0.4497917 0.07488,-0.1411023 0.176212,-0.2601648 0.304271,-0.3571875 0.132291,-0.096996 0.28866,-0.1719791 0.469635,-0.2248958 0.180711,-0.057309 0.379148,-0.08599 0.595313,-0.08599 0.154252,0 0.304006,0.013229 0.449527,0.039688 0.150019,0.026458 0.28231,0.06395 0.396875,0.1124479 V 2.6420403 c 0,-0.2292879 -0.06615,-0.4056856 -0.198438,-0.5291666 -0.127793,-0.1234546 -0.319616,-0.1852083 -0.575204,-0.1852083 -0.185208,0 -0.366183,0.033073 -0.542396,0.099219 -0.176477,0.066146 -0.357187,0.1631685 -0.542396,0.2910417 L 19.101443,1.7556862 c 0.445293,-0.2954338 0.926041,-0.4431771 1.441979,-0.4431771 0.49821,0 0.883973,0.1234811 1.157287,0.3704167 0.277813,0.2425435 0.416719,0.5953125 0.416719,1.0583333 v 1.0781771 c 0,0.092604 0.01535,0.15875 0.0463,0.1984375 0.03519,0.039688 0.09049,0.061754 0.165365,0.066146 V 4.838082 c -0.150019,0.030877 -0.27993,0.046302 -0.390261,0.046302 -0.167481,0 -0.297656,-0.037465 -0.39026,-0.1124479 -0.08811,-0.074956 -0.14314,-0.1741753 -0.165365,-0.2976563 L 21.363365,4.282457 c -0.154252,0.202856 -0.341577,0.3571875 -0.562239,0.4630208 -0.220398,0.1058334 -0.456142,0.15875 -0.707496,0.15875 z m 0.251354,-0.6482291 c 0.149754,0 0.290777,-0.026458 0.423069,-0.079375 0.13679,-0.052917 0.242623,-0.1234546 0.3175,-0.2116667 0.0971,-0.074956 0.145521,-0.15875 0.145521,-0.2513542 v -0.396875 c -0.105834,-0.039687 -0.220398,-0.070538 -0.343959,-0.092604 -0.123295,-0.026458 -0.242358,-0.039687 -0.356922,-0.039687 -0.229394,0 -0.416719,0.052917 -0.56224,0.15875 -0.145521,0.1014412 -0.218281,0.2315104 -0.218281,0.3902604 0,0.1499394 0.05715,0.2756164 0.171979,0.3770312 0.114564,0.097023 0.255587,0.1455209 0.423333,0.1455203 z"
         fill="#2a7ae4"
         id="path22"
         style="stroke-width:0.265596" />
    </g>
  </g>
</svg>
