<svg width="18" height="18" viewBox="0 0 18 18" fill="none" xmlns="http://www.w3.org/2000/svg">
<path d="M12.5001 11H11.7101L11.4301 10.73C12.6301 9.33002 13.2501 7.42002 12.9101 5.39002C12.4401 2.61002 10.1201 0.390015 7.32014 0.0500152C3.09014 -0.469985 -0.469863 3.09001 0.0501373 7.32001C0.390137 10.12 2.61014 12.44 5.39014 12.91C7.42014 13.25 9.33014 12.63 10.7301 11.43L11.0001 11.71V12.5L15.2501 16.75C15.6601 17.16 16.3301 17.16 16.7401 16.75C17.1501 16.34 17.1501 15.67 16.7401 15.26L12.5001 11ZM6.50014 11C4.01014 11 2.00014 8.99002 2.00014 6.50002C2.00014 4.01002 4.01014 2.00002 6.50014 2.00002C8.99014 2.00002 11.0001 4.01002 11.0001 6.50002C11.0001 8.99002 8.99014 11 6.50014 11Z" fill="#464646"/>
</svg>
