<?xml version="1.0" encoding="UTF-8" standalone="no"?>
<svg
   width="450"
   height="560"
   viewBox="0 0 119.06251 148.16667"
   version="1.1"
   id="svg8"
   inkscape:version="1.1.2 (b8e25be833, 2022-02-05)"
   sodipodi:docname="not.svg"
   xmlns:inkscape="http://www.inkscape.org/namespaces/inkscape"
   xmlns:sodipodi="http://sodipodi.sourceforge.net/DTD/sodipodi-0.dtd"
   xmlns="http://www.w3.org/2000/svg"
   xmlns:svg="http://www.w3.org/2000/svg"
   xmlns:rdf="http://www.w3.org/1999/02/22-rdf-syntax-ns#"
   xmlns:cc="http://creativecommons.org/ns#"
   xmlns:dc="http://purl.org/dc/elements/1.1/">
  <defs
     id="defs2" />
  <sodipodi:namedview
     id="base"
     pagecolor="#ffffff"
     bordercolor="#666666"
     borderopacity="1.0"
     inkscape:pageopacity="0.0"
     inkscape:pageshadow="2"
     inkscape:zoom="0.53159964"
     inkscape:cx="835.21502"
     inkscape:cy="307.56229"
     inkscape:document-units="cm"
     inkscape:current-layer="layer1"
     inkscape:document-rotation="0"
     showgrid="false"
     units="px"
     inkscape:pagecheckerboard="true"
     inkscape:showpageshadow="false"
     width="800px"
     inkscape:window-width="1920"
     inkscape:window-height="1017"
     inkscape:window-x="-8"
     inkscape:window-y="-8"
     inkscape:window-maximized="1" />
  <metadata
     id="metadata5">
    <rdf:RDF>
      <cc:Work
         rdf:about="">
        <dc:format>image/svg+xml</dc:format>
        <dc:type
           rdf:resource="http://purl.org/dc/dcmitype/StillImage" />
      </cc:Work>
    </rdf:RDF>
  </metadata>
  <g
     inkscape:label="Layer 1"
     inkscape:groupmode="layer"
     id="layer1">
    <g
       id="g21892"
       transform="translate(-46.30209,-5.6425507)">
      <path
         id="path844"
         style="fill:#ff0000;fill-rule:evenodd;stroke-width:0.555622;stroke-linecap:round;stroke-linejoin:round;stop-color:#000000"
         d="m 68.016521,88.634384 c 0.415423,-0.689729 0.832689,-1.380939 1.259872,-2.077392 0.514683,-0.839102 1.038175,-1.682768 1.569929,-2.531628 0.531757,-0.848858 1.071743,-1.702986 1.620573,-2.561601 0.548833,-0.858615 1.106345,-1.721649 1.672252,-2.590022 0.575661,-0.868373 1.159279,-1.74389 1.750795,-2.62568 0.591518,-0.881788 1.190969,-1.770266 1.798341,-2.665471 1.214747,-1.790409 2.461141,-3.607274 3.739306,-5.451345 1.278168,-1.844075 2.58789,-3.715359 3.929478,-5.613096 1.341586,-1.897735 2.715152,-3.821891 4.120161,-5.773291 L 69.289829,26.508978 A 44.539166,44.539166 0 0 0 56.002268,58.208335 44.539166,44.539166 0 0 0 68.016521,88.634384 Z" />
      <path
         id="path21881"
         style="fill:#ff0000;fill-rule:evenodd;stroke-width:0.555622;stroke-linecap:round;stroke-linejoin:round;stop-color:#000000"
         d="m 124.17123,104.06962 h -1.88773 c -0.28296,-0.56591 -0.56963,-1.13251 -0.8599,-1.69964 -0.29027,-0.56712 -0.58401,-1.13491 -0.8816,-1.70325 -0.29759,-0.56835 -0.59892,-1.137312 -0.90382,-1.706878 -0.30491,-0.569563 -0.6133,-1.139703 -0.92553,-1.710489 -0.31222,-0.570785 -0.6282,-1.142103 -0.94774,-1.714108 -0.31954,-0.572003 -0.64259,-1.145016 -0.96945,-1.718241 -0.32686,-0.573223 -0.65749,-1.146898 -0.99167,-1.721343 -0.33418,-0.574442 -0.67188,-1.149294 -1.01338,-1.724959 -0.33174,-0.585419 -0.67029,-1.172239 -1.01544,-1.760098 -0.34515,-0.587859 -0.69718,-1.177036 -1.05575,-1.767335 -0.35857,-0.590298 -0.72355,-1.18183 -1.09554,-1.774568 -0.37198,-0.592738 -0.75096,-1.186627 -1.13637,-1.781802 -0.3854,-0.595178 -0.77733,-1.191424 -1.17615,-1.789039 -0.39882,-0.597617 -0.80423,-1.196734 -1.21646,-1.79679 -0.41224,-0.600054 -0.83164,-1.201013 -1.25729,-1.803506 -0.42565,-0.602496 -0.85801,-1.206326 -1.29708,-1.811261 -0.27319,0.351253 -0.56576,0.736452 -0.87798,1.156002 -0.31223,0.419552 -0.64404,0.873307 -0.99529,1.361157 -0.35125,0.487852 -0.7218,1.010166 -1.11208,1.566314 -0.39028,0.556149 -0.80007,1.146504 -1.22938,1.770952 -0.40979,0.624446 -0.82194,1.258247 -1.23662,1.902209 -0.414668,0.643961 -0.832048,1.298162 -1.251601,1.961636 -0.419549,0.663478 -0.841642,1.336525 -1.266071,2.019515 -0.424431,0.68299 -0.851233,1.375923 -1.280543,2.078426 -1.639176,2.810018 -3.200371,5.502731 -4.683435,8.078579 -0.370766,0.643961 -0.716714,1.253681 -1.038696,1.829345 -0.321982,0.575662 -0.619773,1.117342 -0.892969,1.624702 -0.273195,0.50737 -0.521795,0.98049 -0.746207,1.41956 -0.224411,0.43906 -0.424854,0.84414 -0.60048,1.21491 h -0.83354 a 44.539166,44.539166 0 0 0 18.337902,3.96978 44.539166,44.539166 0 0 0 18.33789,-3.96978 z" />
      <path
         id="path21879"
         style="fill:#ff0000;fill-rule:evenodd;stroke-width:0.555622;stroke-linecap:round;stroke-linejoin:round;stop-color:#000000"
         d="m 142.38821,26.48779 -19.96467,30.491164 c 0.81959,1.063511 1.6225,2.117047 2.40915,3.161046 0.78666,1.043998 1.55724,2.078167 2.31097,3.102652 0.75373,1.024485 1.49096,2.039289 2.21175,3.044259 0.7208,1.004972 1.42518,2.000409 2.11305,2.985865 0.68787,0.985457 1.3589,1.96101 2.01383,2.926953 0.65494,0.965944 1.29364,1.92213 1.91565,2.86856 0.62201,0.946428 1.22735,1.883249 1.81643,2.810163 0.58908,0.926915 1.16209,1.843853 1.71824,2.751254 0.55615,0.897644 1.09731,1.777874 1.62419,2.640148 0.52688,0.862274 1.03925,1.70679 1.53686,2.533698 0.4976,0.826905 0.98067,1.63622 1.449,2.427758 0.0639,0.108059 0.12265,0.209376 0.18604,0.316775 A 44.539166,44.539166 0 0 0 155.6644,58.208335 44.539166,44.539166 0 0 0 142.38821,26.48779 Z" />
      <path
         id="path21877"
         style="fill:#ff0000;fill-rule:evenodd;stroke-width:2.09999;stroke-linecap:round;stroke-linejoin:round;stop-color:#000000"
         d="m 469.44727,66.666016 h -8.15821 L 402.87695,162.25 343.13477,66.666016 h -12.44336 a 168.337,168.337 0 0 0 -48.8086,33.525394 l 76.29883,114.27734 c -5.31027,7.37537 -10.5017,14.64777 -15.57226,21.82031 -5.07057,7.17255 -10.0207,14.24512 -14.85157,21.21485 -4.83086,6.96972 -9.54164,13.83661 -14.13281,20.60351 -2.29558,3.38345 -4.56122,6.74148 -6.79688,10.07422 -2.23565,3.33275 -4.44145,6.64179 -6.61718,9.92383 -2.13886,3.28204 -4.24599,6.5439 -6.32032,9.78906 -2.07432,3.24516 -4.11521,6.47336 -6.125,9.68164 -2.00978,3.20829 -3.98833,6.39695 -5.93359,9.56836 -1.61455,2.63226 -3.19162,5.24471 -4.76172,7.85156 a 168.337,168.337 0 0 0 53.6211,38.33789 h 3.15039 c 0.66378,-1.40132 1.42136,-2.93233 2.26953,-4.59179 0.84817,-1.65946 1.78776,-3.44764 2.82031,-5.36524 1.03255,-1.91759 2.15806,-3.96489 3.375,-6.14062 1.21694,-2.17574 2.52446,-4.48019 3.92578,-6.91406 5.60528,-9.73549 11.50586,-19.91267 17.70117,-30.53321 1.62259,-2.65513 3.2357,-5.27409 4.83985,-7.85547 1.60414,-2.58138 3.19945,-5.12518 4.78515,-7.63281 1.58571,-2.50762 3.16321,-4.98019 4.73047,-7.41406 1.56727,-2.43387 3.125,-4.82934 4.67383,-7.18945 1.62258,-2.36012 3.17141,-4.59138 4.64649,-6.69336 1.47507,-2.10198 2.87555,-4.07608 4.20312,-5.91993 1.32757,-1.84384 2.58166,-3.55882 3.76172,-5.14453 1.18006,-1.5857 2.28581,-3.04157 3.31836,-4.36914 1.65946,2.28637 3.29359,4.56856 4.90234,6.84571 1.60875,2.27714 3.19391,4.54848 4.75196,6.8164 1.55804,2.26793 3.09031,4.53231 4.59765,6.79102 1.50734,2.2587 2.98868,4.51223 4.44531,6.76172 1.45664,2.24948 2.889,4.4941 4.29493,6.73437 1.40593,2.24027 2.7854,4.47598 4.14062,6.70703 1.35522,2.23105 2.68572,4.45786 3.99023,6.67969 1.30452,2.22183 2.58408,4.43973 3.8379,6.65234 1.29069,2.17574 2.56704,4.34841 3.83007,6.51953 1.26304,2.17113 2.51268,4.33935 3.74805,6.50586 1.23538,2.16652 2.45635,4.33224 3.66406,6.49414 1.20772,2.16191 2.40198,4.32122 3.58203,6.47852 1.18006,2.1573 2.34565,4.31216 3.49805,6.46484 1.1524,2.15269 2.29127,4.3031 3.41602,6.45118 1.12474,2.14807 2.23494,4.29403 3.33203,6.4375 1.09708,2.14346 2.18057,4.28497 3.25,6.42382 h 7.13476 a 168.337,168.337 0 0 0 53.91797,-38.66406 c -0.23959,-0.40592 -0.46147,-0.78885 -0.70312,-1.19726 -1.77009,-2.99164 -3.59585,-6.05047 -5.47656,-9.17578 -1.88072,-3.12532 -3.81725,-6.31719 -5.8086,-9.57618 -1.99135,-3.25899 -4.03669,-6.58584 -6.13867,-9.97851 -2.10198,-3.42955 -4.2677,-6.89514 -6.49414,-10.39844 -2.22644,-3.5033 -4.51434,-7.04404 -6.86524,-10.62109 -2.35089,-3.57706 -4.76487,-7.19099 -7.24023,-10.8418 -2.47536,-3.65081 -5.01151,-7.33794 -7.61133,-11.0625 -2.59982,-3.72456 -5.26205,-7.48684 -7.98633,-11.28516 -2.72427,-3.79831 -5.51063,-7.63379 -8.35937,-11.50586 -2.84874,-3.87207 -5.76118,-7.78074 -8.73438,-11.72656 -2.97319,-3.94582 -6.00781,-7.92769 -9.10547,-11.94726 L 518.16016,100.11133 A 168.337,168.337 0 0 0 469.44727,66.666016 Z"
         transform="scale(0.26458334)" />
      <path
         id="path21875"
         style="fill:#ff0000;fill-rule:evenodd;stroke-width:0.555622;stroke-linecap:round;stroke-linejoin:round;stop-color:#000000"
         d="M 105.83334,8.3772666 A 44.539166,44.539166 0 0 0 87.495438,12.34705 h 3.292306 L 106.59453,37.63698 122.0494,12.34705 h 2.15853 A 44.539166,44.539166 0 0 0 105.83334,8.3772666 Z" />
      <text
         xml:space="preserve"
         style="font-style:italic;font-weight:bold;font-size:16.9333px;line-height:1.25;font-family:Ubuntu;-inkscape-font-specification:'Ubuntu Bold Italic';text-align:center;text-anchor:middle;stroke-width:0.264583"
         x="105.17294"
         y="129.65388"
         id="text16067"><tspan
           sodipodi:role="line"
           id="tspan16065"
           style="font-style:normal;font-variant:normal;font-weight:500;font-stretch:normal;font-size:16.9333px;font-family:Ubuntu;-inkscape-font-specification:'Ubuntu Medium';stroke-width:0.264583"
           x="105.17294"
           y="129.65388">PÁGINA NÃO </tspan><tspan
           sodipodi:role="line"
           style="font-style:normal;font-variant:normal;font-weight:500;font-stretch:normal;font-size:16.9333px;font-family:Ubuntu;-inkscape-font-specification:'Ubuntu Medium';stroke-width:0.264583"
           x="105.17294"
           y="150.82051"
           id="tspan19219">ENCONTRADA</tspan></text>
    </g>
  </g>
</svg>
