<?xml version="1.0" encoding="UTF-8" standalone="no"?>
<svg
   width="400"
   height="140"
   viewBox="0 0 105.83333 37.041666"
   version="1.1"
   id="svg8"
   inkscape:version="1.1.2 (b8e25be833, 2022-02-05)"
   sodipodi:docname="anuncie.svg"
   xmlns:inkscape="http://www.inkscape.org/namespaces/inkscape"
   xmlns:sodipodi="http://sodipodi.sourceforge.net/DTD/sodipodi-0.dtd"
   xmlns="http://www.w3.org/2000/svg"
   xmlns:svg="http://www.w3.org/2000/svg"
   xmlns:rdf="http://www.w3.org/1999/02/22-rdf-syntax-ns#"
   xmlns:cc="http://creativecommons.org/ns#"
   xmlns:dc="http://purl.org/dc/elements/1.1/">
  <defs
     id="defs2">
    <inkscape:path-effect
       effect="spiro"
       id="path-effect7005"
       is_visible="true"
       lpeversion="1" />
  </defs>
  <sodipodi:namedview
     id="base"
     pagecolor="#ffffff"
     bordercolor="#666666"
     borderopacity="1.0"
     inkscape:pageopacity="0.0"
     inkscape:pageshadow="2"
     inkscape:zoom="1.4"
     inkscape:cx="211.42857"
     inkscape:cy="11.785714"
     inkscape:document-units="cm"
     inkscape:current-layer="layer1"
     inkscape:document-rotation="0"
     showgrid="false"
     units="px"
     inkscape:pagecheckerboard="true"
     inkscape:showpageshadow="false"
     inkscape:window-width="1920"
     inkscape:window-height="1017"
     inkscape:window-x="-8"
     inkscape:window-y="-8"
     inkscape:window-maximized="1" />
  <metadata
     id="metadata5">
    <rdf:RDF>
      <cc:Work
         rdf:about="">
        <dc:format>image/svg+xml</dc:format>
        <dc:type
           rdf:resource="http://purl.org/dc/dcmitype/StillImage" />
      </cc:Work>
    </rdf:RDF>
  </metadata>
  <g
     inkscape:label="Layer 1"
     inkscape:groupmode="layer"
     id="layer1">
    <text
       xml:space="preserve"
       style="font-style:italic;font-weight:bold;font-size:12.3472px;line-height:1.25;font-family:Raleway;-inkscape-font-specification:'Raleway Bold Italic';text-align:center;text-anchor:middle;stroke-width:0.264583;fill:#ff9f00;fill-opacity:1"
       x="73.766029"
       y="15.123466"
       id="text16358"><tspan
         sodipodi:role="line"
         style="font-style:normal;font-variant:normal;font-weight:bold;font-stretch:normal;font-size:12.3472px;font-family:Raleway;-inkscape-font-specification:'Raleway Bold';stroke-width:0.264583;fill:#ff9f00;fill-opacity:1"
         x="73.766029"
         y="15.123466"
         id="tspan16360">ANUNCIE</tspan><tspan
         sodipodi:role="line"
         style="font-style:normal;font-variant:normal;font-weight:bold;font-stretch:normal;font-size:12.3472px;font-family:Raleway;-inkscape-font-specification:'Raleway Bold';stroke-width:0.264583;fill:#ff9f00;fill-opacity:1"
         x="73.766029"
         y="30.557467"
         id="tspan27400">AQUI</tspan></text>
    <path
       style="fill:#9f00ff;stroke-width:1;fill-opacity:1"
       d="M 6.2749063,25.784154 V 22.07358 l 1.0158994,0.03965 c 0.5587464,0.02181 1.2914471,0.0698 1.6282242,0.106642 l 0.6123249,0.06699 0.014333,3.603935 0.014333,3.603934 H 7.9174738 6.2749252 Z m 31.2680297,2.771451 c 0.844078,-0.600001 1.902401,-1.735246 2.601398,-2.790482 0.444722,-0.671353 1.096465,-2.02296 1.368944,-2.838954 0.462364,-1.384627 0.666062,-2.680718 0.666062,-4.238126 0,-1.999374 -0.367251,-3.779627 -1.121241,-5.435199 -0.08749,-0.192118 -0.159073,-0.359219 -0.159073,-0.371336 0,-0.05032 -0.6503,-1.146748 -0.903987,-1.524166 C 39.679107,10.887331 38.868403,9.9324493 38.474503,9.5663795 38.084531,9.2039721 37.276646,8.5643952 37.20884,8.5643952 c -0.03189,0 -0.04435,-0.013618 -0.02773,-0.030247 0.03536,-0.035377 0.824205,0.2334293 1.273543,0.4339806 0.469089,0.2093645 1.244295,0.6906689 1.715424,1.0650592 2.925272,2.324603 4.415774,6.392044 3.815311,10.411622 -0.368762,2.468525 -1.441864,4.610554 -3.130571,6.248948 -0.871739,0.845762 -1.963263,1.552782 -2.946541,1.908571 -0.761817,0.27566 -0.810167,0.269478 -0.36534,-0.04672 z m -13.074598,0.165192 c -0.02743,-0.07427 -1.112936,-0.978513 -1.718809,-1.43176 -4.092426,-3.0615 -9.114496,-4.948408 -14.3452826,-5.389861 -0.5128908,-0.04329 -1.2896888,-0.09577 -1.7262212,-0.116627 l -0.7936943,-0.03792 0.014364,-3.152752 0.014364,-3.152751 1.0019853,-0.03493 c 5.2870305,-0.184341 10.4577485,-1.828456 14.7011315,-4.674461 0.968262,-0.649407 2.011295,-1.4530136 2.629116,-2.0256058 0.132468,-0.1227723 0.263976,-0.2315704 0.292242,-0.2417764 0.03131,-0.011299 0.05139,3.9563022 0.05139,10.1450912 0,6.122674 -0.0203,10.163643 -0.05102,10.163643 -0.02806,0 -0.05937,-0.02262 -0.06958,-0.05028 z m 8.498309,-3.372024 c 0.522682,-0.413708 0.8611,-0.719362 1.110662,-1.003127 0.984246,-1.119125 1.589264,-2.351278 1.933175,-3.93705 0.167906,-0.774175 0.182972,-2.583037 0.02796,-3.355167 -0.226754,-1.129418 -0.672314,-2.260602 -1.210523,-3.073224 -0.406965,-0.614475 -1.093745,-1.385051 -1.557938,-1.748049 -0.209115,-0.163527 -0.372215,-0.305319 -0.362438,-0.315093 0.0097,-0.0098 0.239988,0.07391 0.511598,0.185973 1.969768,0.812685 3.403238,2.689886 3.905188,5.114035 0.13228,0.638843 0.129454,2.27855 -0.0053,2.925808 -0.314754,1.514764 -0.923429,2.705724 -1.902288,3.722059 -0.697547,0.724263 -1.655687,1.331375 -2.422521,1.535002 -0.135484,0.03598 -0.136217,0.03462 -0.02781,-0.05117 z m -3.459205,-2.592966 c 1.84985,-1.727554 2.238741,-4.801744 0.893515,-7.063228 -0.256407,-0.431049 -0.868226,-1.130344 -1.213172,-1.386628 -0.404003,-0.300161 0.405431,0.03643 0.893983,0.371751 2.310008,1.585482 2.647406,5.322424 0.668949,7.409109 -0.452761,0.477523 -0.822861,0.73325 -1.377746,0.951964 l -0.291603,0.114938 z M 2.6700878,18.598154 2.6844515,15.43912 h 1.4473103 1.4473103 l 0.011787,3.159034 0.011787,3.159034 h -1.4734799 -1.47348 z m 22.1971902,-0.0032 v -1.993141 l 1.238564,0.199629 1.238561,0.199628 0.01479,1.5941 0.01476,1.594102 -0.153926,0.03043 c -0.08466,0.01674 -0.385637,0.06891 -0.668833,0.115939 -0.283203,0.04704 -0.734094,0.123137 -1.001985,0.169123 -0.267894,0.04598 -0.530914,0.08356 -0.584493,0.0835 -0.09096,-1.12e-4 -0.09741,-0.13218 -0.09741,-1.993283 z M 1.8494751,20.346521 1.4598146,20.221834 1.4450581,18.604209 1.4303393,16.986582 1.8625754,16.859018 c 0.2377292,-0.07016 0.4635489,-0.139225 0.5018185,-0.153475 0.05481,-0.02041 0.069582,0.377101 0.069582,1.872683 0,2.173809 0.065313,1.976224 -0.5844892,1.768295 z"
       id="path27198" />
  </g>
</svg>
