<?xml version="1.0" encoding="UTF-8" standalone="no"?>
<svg
   width="400"
   height="140"
   viewBox="0 0 105.83333 37.041666"
   version="1.1"
   id="svg8"
   inkscape:version="1.1.2 (b8e25be833, 2022-02-05)"
   sodipodi:docname="fidelidade.svg"
   xmlns:inkscape="http://www.inkscape.org/namespaces/inkscape"
   xmlns:sodipodi="http://sodipodi.sourceforge.net/DTD/sodipodi-0.dtd"
   xmlns="http://www.w3.org/2000/svg"
   xmlns:svg="http://www.w3.org/2000/svg"
   xmlns:rdf="http://www.w3.org/1999/02/22-rdf-syntax-ns#"
   xmlns:cc="http://creativecommons.org/ns#"
   xmlns:dc="http://purl.org/dc/elements/1.1/">
  <defs
     id="defs2">
    <inkscape:path-effect
       effect="spiro"
       id="path-effect7005"
       is_visible="true"
       lpeversion="1" />
  </defs>
  <sodipodi:namedview
     id="base"
     pagecolor="#ffffff"
     bordercolor="#666666"
     borderopacity="1.0"
     inkscape:pageopacity="0.0"
     inkscape:pageshadow="2"
     inkscape:zoom="5.6"
     inkscape:cx="106.42857"
     inkscape:cy="64.553572"
     inkscape:document-units="cm"
     inkscape:current-layer="layer1"
     inkscape:document-rotation="0"
     showgrid="false"
     units="px"
     inkscape:pagecheckerboard="true"
     inkscape:showpageshadow="false"
     inkscape:window-width="1920"
     inkscape:window-height="1017"
     inkscape:window-x="-8"
     inkscape:window-y="-8"
     inkscape:window-maximized="1" />
  <metadata
     id="metadata5">
    <rdf:RDF>
      <cc:Work
         rdf:about="">
        <dc:format>image/svg+xml</dc:format>
        <dc:type
           rdf:resource="http://purl.org/dc/dcmitype/StillImage" />
      </cc:Work>
    </rdf:RDF>
  </metadata>
  <g
     inkscape:label="Layer 1"
     inkscape:groupmode="layer"
     id="layer1">
    <text
       xml:space="preserve"
       style="font-style:italic;font-weight:bold;font-size:12.3472px;line-height:1.25;font-family:Raleway;-inkscape-font-specification:'Raleway Bold Italic';text-align:center;text-anchor:middle;stroke-width:0.264583"
       x="69.608299"
       y="32.69936"
       id="text16358"><tspan
         sodipodi:role="line"
         style="font-style:normal;font-variant:normal;font-weight:bold;font-stretch:normal;font-size:12.3472px;font-family:Raleway;-inkscape-font-specification:'Raleway Bold';stroke-width:0.264583"
         x="69.608299"
         y="32.69936"
         id="tspan16360">FIDELIDADE</tspan></text>
    <text
       xml:space="preserve"
       style="font-style:italic;font-weight:bold;font-size:10.9361px;line-height:1.25;font-family:Raleway;-inkscape-font-specification:'Raleway Bold Italic';text-align:center;text-anchor:middle;stroke-width:0.264583"
       x="69.63652"
       y="10.587747"
       id="text24216"><tspan
         sodipodi:role="line"
         id="tspan24214"
         style="font-style:normal;font-variant:normal;font-weight:bold;font-stretch:normal;font-size:10.9361px;font-family:Raleway;-inkscape-font-specification:'Raleway Bold';stroke-width:0.264583"
         x="69.63652"
         y="10.587747">POLÍTICA DE</tspan></text>
    <path
       style="fill:#00bfff;stroke-width:0.55562499;stroke-miterlimit:4;stroke-dasharray:none;stroke:none;stroke-opacity:1"
       d="m 32.309547,19.64809 c -0.206021,-0.341107 -0.45182,-0.7413 -0.546226,-0.889317 -0.09441,-0.148018 -1.182111,-1.911958 -2.417113,-3.919869 -1.537126,-2.499101 -2.227687,-3.677137 -2.189088,-3.734404 0.03101,-0.04601 1.220573,-0.984709 2.643483,-2.0859943 2.546243,-1.9707131 2.587894,-1.9995809 2.63708,-1.8278697 0.08995,0.313995 2.698208,11.741754 2.682138,11.751433 -0.271962,0.163777 -2.376131,1.326216 -2.400623,1.326216 -0.0193,0 -0.203631,-0.279088 -0.409651,-0.620195 z"
       id="path10265" />
    <path
       style="fill:#00bfff;stroke-width:0.55562499;stroke-miterlimit:4;stroke-dasharray:none;stroke:none;stroke-opacity:1"
       d="M 3.2495847,19.784362 C 2.2431397,19.217689 2.0564629,19.089483 2.0700269,18.974264 2.0919509,18.787953 4.7353817,7.2491785 4.7622927,7.2222655 c 0.01178,-0.01177 1.197159,0.89027 2.634187,2.004544 1.621281,1.2571415 2.6097653,2.0652055 2.6048313,2.1293975 -0.0065,0.08294 -5.3706203,8.889615 -5.5156503,9.055232 -0.02222,0.02537 -0.578456,-0.256809 -1.236076,-0.627077 z"
       id="path10263" />
    <path
       style="fill:#00bfff;stroke-width:0.55562499;stroke-miterlimit:4;stroke-dasharray:none;stroke:none;stroke-opacity:1"
       d="m 28.907898,21.02251 c -0.0906,-0.138267 -1.765442,-1.520395 -6.997965,-5.774901 -0.56916,-0.462779 -1.091839,-0.873101 -1.161503,-0.911824 -0.10316,-0.05734 -0.22075,-0.0231 -0.633656,0.184502 -0.691336,0.347597 -1.52045,0.614946 -2.19868,0.70897 -0.932306,0.129246 -2.026058,-0.08913 -2.756777,-0.550415 -0.210276,-0.132739 -0.266899,-0.207354 -0.266899,-0.351683 0,-0.100759 0.05095,-0.227982 0.113181,-0.28272 0.148356,-0.130443 4.375816,-2.379361 4.671479,-2.485125 0.407786,-0.145871 0.681662,-0.09467 2.342079,0.437862 1.420383,0.455546 1.716054,0.529471 2.233743,0.558489 0.736936,0.0413 1.203356,-0.04562 2.045963,-0.38132 0.353554,-0.140856 0.663598,-0.23278 0.688987,-0.204277 0.02536,0.02851 1.000282,1.604631 2.16642,3.502508 l 2.120255,3.450685 -1.130389,1.130393 -1.130398,1.130391 z"
       id="path10261" />
    <path
       style="fill:#00bfff;stroke-width:0.55562499;stroke-miterlimit:4;stroke-dasharray:none;stroke:none;stroke-opacity:1"
       d="M 7.1607657,23.380595 C 6.5017535,23.081246 6.2397292,22.286917 6.5992381,21.67832 6.736118,21.446598 8.3476775,20.022354 8.6659023,19.851867 c 0.5308753,-0.28441 1.2596236,-0.05623 1.5678357,0.490922 0.190306,0.337832 0.209832,0.825137 0.04554,1.136646 -0.140984,0.267307 -1.8050749,1.740216 -2.1456759,1.89916 -0.3271623,0.152674 -0.6397143,0.153315 -0.9728401,0.0019 z"
       id="path10259" />
    <path
       style="fill:#00bfff;stroke-width:0.55562499;stroke-miterlimit:4;stroke-dasharray:none;stroke:none;stroke-opacity:1"
       d="M 9.2331237,25.514283 C 8.5772778,25.21159 8.30366,24.444902 8.6348615,23.837898 8.7312055,23.661317 9.2539737,23.1567 10.181814,22.344644 c 1.584947,-1.38715 1.725963,-1.46561 2.331695,-1.297382 0.314316,0.0873 0.605739,0.337702 0.771772,0.663154 0.170523,0.334243 0.144852,0.927789 -0.05168,1.194351 -0.217471,0.295017 -2.688227,2.457466 -2.96992,2.59933 -0.3245557,0.163448 -0.6906822,0.167065 -1.0305967,0.01019 z"
       id="path10257" />
    <path
       style="fill:#00bfff;stroke-width:0.55562499;stroke-miterlimit:4;stroke-dasharray:none;stroke:none;stroke-opacity:1"
       d="m 11.592847,27.262945 c -0.32672,-0.173797 -0.593442,-0.5819 -0.626711,-0.958924 -0.04619,-0.522993 0.132278,-0.769081 1.339171,-1.847002 1.360192,-1.214827 1.472428,-1.293316 1.900071,-1.32878 0.987435,-0.08189 1.638718,0.973613 1.117921,1.811769 -0.155156,0.249711 -2.332542,2.192016 -2.629416,2.345537 -0.262765,0.13588 -0.824786,0.124345 -1.101036,-0.02259 z"
       id="path10255" />
    <path
       style="fill:#00bfff;stroke-width:0.55562499;stroke-miterlimit:4;stroke-dasharray:none;stroke:none;stroke-opacity:1"
       d="m 14.749569,28.680442 c -0.711266,-0.227872 -1.067339,-1.060865 -0.728006,-1.703096 0.13215,-0.250113 1.469626,-1.4699 1.808676,-1.649525 0.461381,-0.244433 1.17431,-0.07543 1.503735,0.356471 0.2137,0.280165 0.273125,0.840688 0.126376,1.191912 -0.09254,0.221483 -1.350509,1.40844 -1.787721,1.686809 -0.212925,0.13557 -0.680693,0.195076 -0.92306,0.117429 z"
       id="path10253" />
    <path
       style="fill:#00bfff;stroke-width:0.55562499;stroke-miterlimit:4;stroke-dasharray:none;stroke:none;stroke-opacity:1"
       d="m 20.084993,28.904261 c -0.15761,-0.06852 -2.305546,-1.286517 -2.396214,-1.358774 -0.0094,-0.0075 0.05887,-0.149617 0.151772,-0.315812 0.325549,-0.582467 0.276339,-1.34311 -0.120255,-1.858694 -0.317756,-0.413109 -0.798905,-0.655326 -1.31132,-0.660146 l -0.41704,-0.004 v -0.374691 c 0,-0.206082 -0.04676,-0.491486 -0.103846,-0.634231 -0.182272,-0.5192 -0.823236,-1.03598 -1.707131,-1.116463 l -0.226371,-0.01714 -0.03892,-0.388065 c -0.04772,-0.476051 -0.170829,-0.776016 -0.448145,-1.09186 -0.550458,-0.626937 -1.482829,-0.753725 -2.212764,-0.300903 L 10.948023,20.97377 10.91225,20.79888 C 10.763926,20.073612 10.483776,19.659825 9.9665233,19.402072 9.5438306,19.191434 8.9222716,19.171803 8.5161167,19.356262 c -0.1453201,0.066 -0.5990294,0.412381 -1.0082391,0.769736 l -0.7440207,0.649735 -0.6287103,-0.48478 c -0.3457878,-0.266631 -0.6197019,-0.52046 -0.6086971,-0.564068 0.010998,-0.0436 1.0321666,-1.725256 2.2692444,-3.737 l 2.2492311,-3.657714 1.146345,-0.04437 c 1.744293,-0.0675 4.013341,-0.276759 5.352044,-0.493575 0.432673,-0.07008 1.152014,-0.04061 1.303794,0.05341 0.03981,0.02468 -0.631838,0.415438 -1.492615,0.868353 -0.860777,0.452916 -1.6479,0.909957 -1.749162,1.015649 -0.262095,0.273573 -0.30071,0.725749 -0.08872,1.039022 0.197502,0.291862 0.933518,0.667567 1.663865,0.849328 0.455687,0.113407 0.676833,0.130419 1.358229,0.104484 0.930376,-0.03541 1.603131,-0.20492 2.52171,-0.635379 0.465765,-0.218264 0.55913,-0.242512 0.647133,-0.168049 0.05653,0.04786 1.830494,1.492804 3.942077,3.210989 4.115256,3.348559 4.078926,3.31385 4.082342,3.900767 0.0016,0.270907 -0.13802,0.653774 -0.308268,0.845498 -0.267085,0.300785 -0.938734,0.452855 -1.334884,0.302242 -0.09098,-0.03459 -1.521492,-1.040365 -3.178929,-2.235058 -1.657445,-1.194693 -3.05886,-2.163238 -3.114263,-2.152321 -0.131988,0.02601 -0.241535,0.204325 -0.196928,0.320562 0.01938,0.05056 1.311926,1.012041 2.872275,2.136629 1.56035,1.124588 2.900547,2.11313 2.978222,2.196754 0.527823,0.568311 0.333656,1.536784 -0.379354,1.892091 -0.37081,0.184785 -0.568925,0.205461 -0.90024,0.09395 -0.120917,-0.0407 -1.413156,-0.920121 -2.871637,-1.954268 -2.789635,-1.978018 -3.014212,-2.104391 -3.058916,-1.721313 -0.0172,0.147405 0.215057,0.329599 2.369719,1.858934 1.313832,0.932534 2.47737,1.796401 2.585633,1.919707 0.386169,0.43982 0.334617,1.139111 -0.113843,1.544266 -0.23237,0.209937 -0.603939,0.369952 -0.844764,0.363802 -0.267787,-0.0069 -0.738139,-0.29967 -2.93787,-1.829047 -1.31346,-0.91319 -2.437712,-1.660344 -2.498332,-1.660344 -0.152249,0 -0.27428,0.164021 -0.226249,0.304113 0.02196,0.06396 0.897882,0.707619 1.946575,1.430356 1.591229,1.096643 1.927953,1.355724 2.035159,1.565854 0.151837,0.297628 0.170272,0.829766 0.03755,1.084796 -0.278559,0.535382 -0.974789,0.795934 -1.507699,0.564232 z"
       id="path9854"
       sodipodi:nodetypes="ssssccscccssscsssscssscssssssssssscsssssscsscsssscsssssss" />
  </g>
</svg>
